PathFileType	4	(X/Y/Z)	C:/Users/opensim2020/Desktop/walking_exp_matlab/subject06_walking14_straight_02.trc																																																																																																																																					
DataRate	CameraRate	NumFrames	NumMarkers	Units	OrigDataRate	OrigDataStartFrame	OrigNumFrames																																																																																																																																	
100	100	6	45	mm	100	1724	192																																																																																																																																	
Frame#	Time	LFHD			RFHD			LBHD			RBHD			C7			T10			CLAV			STRN			RBAK			LSHO			LUPA			LELB			LFRM			LWRA			LWRB			LFIN			RSHO			RUPA			RELB			RFRM			RWRA			RWRB			RFIN			LASI			RASI			LPSI			RPSI			LTHI			LKNE			LTIB			LANK			LHEE			LTOE			RTHI			RKNE			RTIB			RANK			RHEE			RTOE			*39			*40			*41			*42			*43			*44		
		X1	Y1	Z1	X2	Y2	Z2	X3	Y3	Z3	X4	Y4	Z4	X5	Y5	Z5	X6	Y6	Z6	X7	Y7	Z7	X8	Y8	Z8	X9	Y9	Z9	X10	Y10	Z10	X11	Y11	Z11	X12	Y12	Z12	X13	Y13	Z13	X14	Y14	Z14	X15	Y15	Z15	X16	Y16	Z16	X17	Y17	Z17	X18	Y18	Z18	X19	Y19	Z19	X20	Y20	Z20	X21	Y21	Z21	X22	Y22	Z22	X23	Y23	Z23	X24	Y24	Z24	X25	Y25	Z25	X26	Y26	Z26	X27	Y27	Z27	X28	Y28	Z28	X29	Y29	Z29	X30	Y30	Z30	X31	Y31	Z31	X32	Y32	Z32	X33	Y33	Z33	X34	Y34	Z34	X35	Y35	Z35	X36	Y36	Z36	X37	Y37	Z37	X38	Y38	Z38	X39	Y39	Z39	X40	Y40	Z40	X41	Y41	Z41	X42	Y42	Z42	X43	Y43	Z43	X44	Y44	Z44	X45	Y45	Z45
																																																																																																																																								
145	1.44	492.93219	1651.38843	934.19745	504.6434	1645.10461	1065.54272	362.69647	1591.02356	947.24133	376.05768	1590.19385	1076.52783	374.74176	1435.21338	1007.08258	347.73032	1106.21057	1025.86169	487.58801	1361.83875	1003.09937	530.2229	1186.84229	1003.38257	309.48041	1266.98193	1096.17151	418.62677	1387.21704	843.88184	368.64059	1190.75427	780.74725	332.22131	1084.56372	775.29663	310.78436	937.6347	744.97144	352.22397	808.82562	759.55939	283.08008	821.0437	748.03113	299.37045	733.69269	730.09802	447.43256	1398.85217	1165.38159	435.56079	1207.2981	1270.40149	470.51697	1094.11731	1293.72034	546.63885	1005.08813	1305.77319	670.66632	930.81598	1256.5415	634.01227	900.6889	1303.89941	709.10706	864.4765	1297.46875	528.81854	953.29572	917.14917	524.36505	953.1499	1136.09998	368.6156	972.18939	938.43103	372.06995	977.34601	1107.64941	521.25867	641.65607	846.32037	574.10565	489.87662	875.28766	611.58539	236.26184	878.18872	666.80823	70.66699	914.89941	639.55212	43.02789	965.30487	812.54974	84.08292	909.64124	431.11777	619.35223	1179.10193	406.79123	494.24323	1157.47119	268.15329	259.66595	1150.06836	184.30833	92.81824	1103.521	136.81656	80.61469	1060.25708	324.51892	29.68954	1097.28247	396.69794	1687.55078	1000.78351	NaN	NaN	NaN	NaN	NaN	NaN	NaN	NaN	NaN	NaN	NaN	NaN	NaN	NaN	NaN
146	1.45	502.48178	1650.87793	933.01782	514.13885	1644.59985	1064.36194	372.2587	1590.38293	946.03937	385.61362	1589.50842	1075.31995	384.65057	1434.83557	1005.91992	358.25305	1105.43921	1024.19861	497.48001	1361.37317	1001.83453	540.59839	1186.51587	1002.05225	319.49823	1266.14612	1094.64771	428.56281	1386.85461	842.59839	378.51901	1190.49585	779.53058	342.13345	1084.28223	774.14459	320.26837	937.52063	743.69202	361.39304	808.49127	758.69183	292.37259	820.81946	747.09235	308.67764	733.57379	729.25244	457.1268	1398.2428	1164.08801	444.97021	1206.5896	1268.81897	480.18851	1093.40308	1292.14856	556.10699	1004.12286	1304.354	679.75366	929.3476	1254.79639	643.28564	899.58392	1302.48303	718.17438	863.02991	1295.81226	539.98718	952.89209	915.84021	534.87677	952.82898	1134.78772	379.7157	971.44647	936.92755	382.82037	976.65778	1105.86401	532.74933	641.32068	846.14087	585.41119	489.43781	874.50903	619.64423	234.97394	877.35547	672.39294	68.58414	914.32635	644.54004	41.58239	964.22058	818.14972	80.71751	909.92352	441.70123	618.73462	1178.4856	417.98157	493.38339	1156.76111	274.66922	261.30606	1149.95667	186.68962	96.46347	1104.31982	138.8618	85.47176	1061.33276	324.82684	29.70634	1097.34265	406.20947	1686.98108	999.63605	NaN	NaN	NaN	NaN	NaN	NaN	NaN	NaN	NaN	NaN	NaN	NaN	NaN	NaN	NaN
147	1.46	512.03693	1650.35535	931.82294	523.69598	1644.09546	1063.20251	381.79504	1589.84644	944.84015	395.16513	1588.91406	1074.13171	394.47812	1433.54041	1004.20264	368.5206	1104.89685	1022.23737	507.51382	1361.02747	1000.45654	551.01514	1186.28638	1000.6532	329.57376	1265.29797	1093.01257	438.5997	1386.59351	841.21826	388.70462	1190.26404	778.17383	352.21991	1084.05603	772.92078	330.49747	937.15167	742.82092	371.34897	808.23083	757.78943	302.35593	820.58771	746.16498	318.49203	733.31219	728.41656	466.69324	1397.57349	1162.67932	454.74023	1205.89673	1267.24255	489.66962	1092.63	1290.45081	565.20673	1003.04797	1302.7218	688.48083	927.57251	1253.0863	652.04193	898.23236	1300.87231	726.66919	861.16211	1294.08105	551.41614	952.56641	914.51074	545.44916	952.55646	1133.31836	391.24921	970.69232	935.33789	393.5563	976.11725	1104.04749	544.74304	640.93927	845.87219	596.71191	488.69766	873.63629	627.02289	233.38098	876.32031	676.6908	66.17538	913.68811	647.43347	39.84103	963.37427	822.13947	76.01479	909.91882	452.74982	618.01349	1177.40869	429.72183	492.50781	1156.31201	281.80133	263.10379	1149.91382	189.29404	100.61884	1105.1261	141.02299	91.1581	1062.2052	325.12125	29.79836	1097.33521	415.70175	1686.38647	998.41278	NaN	NaN	NaN	NaN	NaN	NaN	NaN	NaN	NaN	NaN	NaN	NaN	NaN	NaN	NaN
148	1.47	521.62756	1649.93164	930.60156	533.19733	1643.57837	1061.91467	391.39841	1589.31396	943.55518	404.70816	1588.37195	1072.84265	404.03357	1433.01721	1003.04602	379.73386	1103.90088	1020.33551	517.52246	1360.71423	999.03107	561.58667	1186.14673	999.159	339.5311	1264.42566	1091.32886	448.77893	1386.41028	839.75226	399.07153	1190.0719	776.73328	362.94861	1083.77539	771.46716	341.18787	936.99774	741.51141	382.01086	807.92188	757.05939	313.03625	820.3172	745.16052	329.01791	732.95752	727.74542	476.2352	1396.87646	1161.15881	463.94003	1205.15674	1265.51257	498.76324	1091.79224	1288.72595	574.03577	1001.82416	1300.96265	696.7962	925.53455	1251.35095	660.10291	896.29175	1299.10156	734.6358	858.91278	1292.37561	563.13397	952.23419	913.20624	556.30438	952.38708	1132.24695	402.73779	970.10895	933.43036	405.46518	975.17163	1101.91003	556.70758	640.42285	845.29395	607.57813	487.72589	872.46851	633.9715	231.86446	875.81598	679.54932	64.05764	914.29517	649.29517	40.03929	964.47131	824.59033	68.11893	909.32666	464.22589	617.31805	1176.62659	442.02695	491.54556	1155.96399	289.41382	265.07135	1149.89868	192.47034	105.23406	1105.65137	144.23959	97.12885	1062.86975	325.42453	29.86419	1097.28174	425.18677	1685.87183	997.07092	NaN	NaN	NaN	NaN	NaN	NaN	NaN	NaN	NaN	NaN	NaN	NaN	NaN	NaN	NaN
149	1.48	531.1626	1649.82666	929.34491	542.66937	1643.3866	1060.78796	400.9642	1588.94519	942.22522	414.25067	1587.87744	1071.51135	413.37149	1432.85156	1001.3302	390.44763	1103.29651	1018.05286	527.6134	1360.62512	997.56793	572.22559	1186.16357	997.68646	349.28955	1263.40637	1089.39136	459.06982	1386.33521	838.0741	409.74469	1189.8623	775.1319	373.79346	1083.47583	770.03003	352.54398	936.46039	740.49976	393.32565	807.57037	756.4223	324.51126	819.84698	744.03497	340.71234	732.48389	726.97382	485.72675	1396.23877	1159.6145	473.35007	1204.37866	1263.80859	507.65045	1090.84583	1286.87683	582.44214	1000.28491	1299.07471	704.75031	923.17114	1249.60498	667.86011	894.22205	1297.45056	741.84888	856.16028	1290.47156	574.89246	951.9704	912.00854	567.11884	952.21503	1131.05872	414.44482	969.76257	931.3833	416.24985	974.7749	1100.01245	568.45258	640.03021	844.20905	617.79553	487.03989	870.93793	641.04767	231.03072	876.23083	682.13977	63.78142	914.15887	651.39722	41.66468	964.83606	828.04083	60.50686	908.66571	476.1517	616.49011	1175.79126	455.11124	490.48544	1155.45349	297.62033	267.35001	1149.65479	196.15398	110.36551	1105.96228	147.67554	104.07181	1063.05823	325.84384	29.99798	1097.23853	434.6221	1685.47546	995.78784	NaN	NaN	NaN	NaN	NaN	NaN	NaN	NaN	NaN	NaN	NaN	NaN	NaN	NaN	NaN
150	1.49	540.60016	1650.33862	928.16382	551.99835	1643.72205	1059.61719	410.66821	1588.9375	940.80286	423.75607	1587.89417	1070.12512	423.15665	1432.55176	999.63892	401.73077	1102.60376	1016.02124	537.505	1360.94568	996.11041	582.5473	1186.4707	996.22009	358.99768	1262.91919	1086.97095	469.54535	1386.41943	836.2406	420.68906	1189.71375	773.3324	385.00784	1083.11584	768.42511	364.23184	936.06085	738.974	405.06567	807.21899	756.07465	336.49478	819.41351	743.06714	353.04578	732.01056	726.31976	495.09021	1395.88013	1158.20862	482.61371	1203.62231	1262.11572	516.37891	1089.88904	1285.09473	590.43542	998.63495	1297.32861	712.43323	920.591	1247.84021	675.086	892.0238	1295.90515	748.91943	853.31097	1288.97693	586.57733	952.01343	910.98706	577.93024	952.19708	1129.84875	426.04221	970.03375	929.38342	427.14322	974.45367	1098.36401	579.81207	640.35406	842.85229	627.3537	487.21753	869.25598	648.62701	231.4507	875.21869	685.73822	63.50677	913.35504	653.95752	42.9916	963.86511	831.30579	56.41743	908.14819	488.68744	615.65399	1174.98193	468.9068	489.40619	1155.01282	306.62152	270.10272	1149.12744	200.52002	116.3719	1105.96814	152.4032	112.01067	1063.42041	326.33957	30.16818	1096.97217	443.87521	1685.55579	994.5766	NaN	NaN	NaN	NaN	NaN	NaN	NaN	NaN	NaN	NaN	NaN	NaN	NaN	NaN	NaN
